# xmcd CD database file
#
# Track frame offsets:
#	182
#	15527
#	32637
#	47095
#	62307
#	80482
#	99825
#	114797
#	131962
#	149912
#
# Disc length: 2186 seconds
#
# Revision: 4
# Processed by: cddbd v1.5.2PL0 Copyright (c) Steve Scherf et al.
# Submitted via: CDex 1.51
#
DISCID=7e08880a
DTITLE=Chad Brock - Yes!
DYEAR=2000
DGENRE=Country
TTITLE0=Yes!
TTITLE1=Hey Mister
TTITLE2=Young Enough To Know It All
TTITLE3=The Visit
TTITLE4=She Does
TTITLE5=Love Lives (Events Of The Heart)
TTITLE6=This
TTITLE7=You Had To Be There
TTITLE8=A Country Boy Can Survive (Y2K Version)
TTITLE9=If I Were You
EXTD=YEAR: 2000
EXTT0=
EXTT1=
EXTT2=
EXTT3=
EXTT4=
EXTT5=
EXTT6=
EXTT7=
EXTT8=
EXTT9=
PLAYORDER=
